<svg width="160" height="167" viewBox="0 0 160 167" fill="none" xmlns="http://www.w3.org/2000/svg">
<path d="M119.801 127.754C121 132.5 120.5 136.5 106.315 140.5C98.8661 140.5 93.4009 132.54 93.4009 125.5C93.4009 118.46 96.824 115.498 105.815 115.016C113.795 114.588 120.301 122.851 119.801 127.754Z" fill="#D9D9D9"/>
<path d="M110 140.804C110 148.428 101.789 154.472 88.4474 155C74.5921 153.943 71 149.348 71 141.724C71 134.101 84.6299 127 93.6563 127C102.683 127 110 133.18 110 140.804Z" fill="#D9D9D9"/>
<path d="M59.0316 115.495C42.0983 121.199 16.5565 125.647 12.2475 117.834C-1.56524 92.7903 25.5391 80.5505 15.6671 88.7784C21.8467 79.2899 31.0208 73.3602 48.0689 84.3731C60.535 99.0541 71.9456 121.64 59.0316 115.495Z" fill="#D9D9D9"/>
<line x1="86.6314" y1="127.04" x2="93.6314" y2="124.04" stroke="black"/>
<path d="M121.263 132.658C120.623 135 118 136 115.239 136.425C113.985 135.792 115.971 133.079 117.313 130.864C118.656 128.648 117.826 124.056 119.081 124.689C120.336 125.321 122.753 127.209 121.263 132.658Z" fill="#D9D9D9"/>
<path d="M95.2001 125.144L92.7596 120.327L91.9993 115.651L92.5 113L98.7034 116L104.205 119.2L95.2001 125.144Z" fill="#D9D9D9"/>
<path d="M103.659 115.457L108.159 109.744L109.294 108.08L110.328 109L111.159 110.993L111.159 113.905L111.159 116L108.464 118L103.659 115.457Z" fill="#D9D9D9"/>
<path d="M69.5301 114.552C78.9975 122.498 85.7804 136.33 80.1806 143.328C93.755 162.275 67.4684 151.717 52.8991 141.612C43.4317 133.665 40.2964 121.55 45.8962 114.552C51.4959 107.553 55.0982 92.0638 69.5301 114.552Z" fill="#D9D9D9"/>
<path d="M114 141L151 152" stroke="black"/>
<path d="M13 49C26.5 96 57.9633 74.3711 33.1903 84.9956C31.5 107.122 0 72.0343 0 46.2164C-1.72744e-06 22.8426 26.2745 0 30.3073 0C42 6.5 7.16692 23.5 13 49Z" fill="#D9D9D9"/>
<ellipse cx="94.5609" cy="123" rx="2.31338" ry="1.99071" transform="rotate(-38.6965 94.5609 123)" fill="#D9D9D9"/>
<path d="M97.0063 125.852C96.7594 127.54 95.1992 128.709 93.5215 128.463C91.8439 128.218 87.8779 125.907 89.8779 124.907C91.1429 124.275 92.8779 115.907 95.3779 117.907C99.8779 117.407 97.2532 124.164 97.0063 125.852Z" fill="#D9D9D9"/>
<ellipse cx="91.7457" cy="125.784" rx="1" ry="1.5" transform="rotate(41.8591 91.7457 125.784)" fill="#D9D9D9"/>
<path d="M84.5 125.5C95.32 122.812 93.9693 129.123 93.5058 130.583C93.0422 132.042 83.7856 132.02 79 130.5C74.2144 128.98 75.5364 121.46 76 120C76.8244 119.421 81 124 84.5 125.5Z" fill="#D9D9D9"/>
<path d="M63.5001 108.5C67.5621 117.978 74.5001 116 71.8524 120.972C70.3959 122.347 64.466 118.428 58.6076 112.219C52.7493 106.01 43.5435 93.8743 45 92.5C40.8626 75.5115 59 98 63.5001 108.5Z" fill="#D9D9D9"/>
<path d="M89.6316 154.356C89.115 155.637 79.345 154.714 72.7355 151.917C61.7988 145.382 57.6754 147.493 60.7679 142.742C61.2846 141.462 68.0748 142.585 74.6844 145.382C81.2939 148.179 90.1483 153.075 89.6316 154.356Z" fill="#D9D9D9"/>
<path d="M72.0919 141.654C72.7729 140.435 71.7809 138.331 69.2888 135.711C66.7967 133.091 62.9626 130.12 58.4549 127.315C53.9473 124.511 49.052 122.052 44.6227 120.366C40.1933 118.681 36.5108 117.876 34.2172 118.092C31.9237 118.308 31.1645 119.531 32.0721 121.548C32.9797 123.566 35.4965 126.249 39.1837 129.13C42.8709 132.012 47.4946 134.909 52.2486 137.316C57.0026 139.723 61.5855 141.488 65.198 142.303L52 130.43L72.0919 141.654Z" fill="#D9D9D9"/>
<path d="M34.4886 128.986C26.4161 144.195 21.4022 156.19 16.6014 144.96C16.9303 133.716 10.6656 114.221 14.21 106.054C26.9133 73.5308 28.2176 112.466 32.3701 114.07C36.5225 115.673 40.2533 118.125 34.4886 128.986Z" fill="#D9D9D9"/>
<path d="M30.7874 154.698C35.2251 165.754 41.72 164.741 38.6188 165.84C22.3398 167.185 28.1791 165.289 23.4945 157.638C18.5284 149.527 15.5037 144.88 18.6049 143.782C35.4898 140.365 21.6238 136.558 30.7874 154.698Z" fill="#D9D9D9"/>
<path d="M38.448 161.685C40.8725 164.861 38.9698 165.83 35.7846 166.379C31.2737 167.769 27.0942 165.926 26.8094 164.284C29.5374 159.651 26.7004 162.208 29.8856 161.659C30.5516 159.476 36.3668 158.958 38.448 161.685Z" fill="#D9D9D9"/>
<path d="M157.065 161.279C160.221 169.771 135.657 163.328 117.86 159.771C86.5035 148.186 93.3947 162.184 98.1387 148.299C110.254 136.571 104.686 142.41 120.728 147.746C150.329 161.214 158.155 158.351 157.065 161.279Z" fill="#D9D9D9"/>
<ellipse cx="152" cy="162.5" rx="8" ry="3.5" fill="#D9D9D9"/>
<path d="M149.816 154.077C163.898 160.33 137.018 155.343 123.492 150.392C109.965 145.44 99.9049 139.295 101.021 136.666C102.137 134.037 111.487 134.31 131.449 144.981C159 154.077 160.837 151.234 149.816 154.077Z" fill="#D9D9D9"/>
<path d="M159 154.148C159 155.723 156.6 157 153 157C150 157 147 155.723 147 154.148C147 152.573 148.8 150.155 152.4 151.296C154.8 151.866 159 152.573 159 154.148Z" fill="#D9D9D9"/>
<path d="M97.0989 121.93C97.6364 122.996 94.0145 125.906 89.0092 128.43C84.004 130.954 79.5107 132.136 78.9732 131.07C78.4357 130.004 82.5 126 87.5 125C93 121.93 96.5614 120.864 97.0989 121.93Z" fill="#D9D9D9"/>
<path d="M84.4834 129.044C83.6493 130.144 78.5133 127.656 73.0117 123.485C67.5102 119.315 63.7264 115.042 64.5605 113.942C65.3946 112.842 70.5306 115.33 76.0322 119.501C81.5337 123.671 85.3175 127.944 84.4834 129.044Z" fill="#D9D9D9"/>
<path d="M51.4977 139.642C54.8507 154.992 59.7056 155.521 53.0967 155.173C52.2488 158.861 48.5758 155.94 42.2592 143.428C38.3231 135.632 27.3629 121.112 30.2436 119.974C33.1242 118.836 48.6326 126.525 51.4977 139.642Z" fill="#D9D9D9"/>
<path d="M61.4469 153.744C63.6654 156.577 58.7156 156.981 55.3462 156.981C51.9769 156.981 48.1173 157.444 47.5611 153.744C42.5553 141.257 50.8983 149.582 54.2355 151.432C57.0165 150.507 59.5454 151.316 61.4469 153.744Z" fill="#D9D9D9"/>
<path d="M46.0454 85.5676C45.2066 86.6299 34.8018 84.3201 32.6056 82.7084C30.4095 81.0966 22.3208 78.2696 23.1596 77.2073C23.9984 76.145 33.5203 76.848 36.8807 78.0923C51.3189 85.0753 46.8897 85.3466 46.0454 85.5676Z" fill="#D9D9D9"/>
<path d="M38.8402 94.5624C38.8402 98.3146 56.9218 94.3423 52.2195 94.3423C47.5173 94.3423 13.2978 166.896 6 98.9562C14.5141 74.3282 30.3261 82.1904 30.3261 87.7684C35.0283 87.7684 38.8402 90.8102 38.8402 94.5624Z" fill="#D9D9D9"/>
<path d="M22.9479 95.8088C21.508 100.195 18.3639 103.101 15.9253 102.3C10.467 104.027 5.42206 96.0922 12.9661 86.7775C15.6376 83.479 8.06173 73.3275 10.5003 74.1281C12.9389 74.9287 24.3878 91.4231 22.9479 95.8088Z" fill="#D9D9D9"/>
<ellipse cx="14.6742" cy="126.017" rx="0.774009" ry="5.5" transform="rotate(-23.6296 14.6742 126.017)" fill="#D9D9D9"/>
</svg>
